<svg id="visual" viewBox="0 0 1920 1080" width="1920" height="1080" xmlns="http://www.w3.org/2000/svg" xmlns:xlink="http://www.w3.org/1999/xlink" version="1.1"><path d="M0 718L45.7 714.7C91.3 711.3 182.7 704.7 274.2 716.3C365.7 728 457.3 758 548.8 770.2C640.3 782.3 731.7 776.7 823 762C914.3 747.3 1005.7 723.7 1097 711.2C1188.3 698.7 1279.7 697.3 1371.2 702.8C1462.7 708.3 1554.3 720.7 1645.8 735.3C1737.3 750 1828.7 767 1874.3 775.5L1920 784L1920 1081L1874.3 1081C1828.7 1081 1737.3 1081 1645.8 1081C1554.3 1081 1462.7 1081 1371.2 1081C1279.7 1081 1188.3 1081 1097 1081C1005.7 1081 914.3 1081 823 1081C731.7 1081 640.3 1081 548.8 1081C457.3 1081 365.7 1081 274.2 1081C182.7 1081 91.3 1081 45.7 1081L0 1081Z" fill="#bb86fc"></path><path d="M0 812L45.7 813.5C91.3 815 182.7 818 274.2 801.3C365.7 784.7 457.3 748.3 548.8 736.2C640.3 724 731.7 736 823 749.2C914.3 762.3 1005.7 776.7 1097 794C1188.3 811.3 1279.7 831.7 1371.2 823.8C1462.7 816 1554.3 780 1645.8 757.2C1737.3 734.3 1828.7 724.7 1874.3 719.8L1920 715L1920 1081L1874.3 1081C1828.7 1081 1737.3 1081 1645.8 1081C1554.3 1081 1462.7 1081 1371.2 1081C1279.7 1081 1188.3 1081 1097 1081C1005.7 1081 914.3 1081 823 1081C731.7 1081 640.3 1081 548.8 1081C457.3 1081 365.7 1081 274.2 1081C182.7 1081 91.3 1081 45.7 1081L0 1081Z" fill="#ab6ad5"></path><path d="M0 856L45.7 864C91.3 872 182.7 888 274.2 881.5C365.7 875 457.3 846 548.8 831.3C640.3 816.7 731.7 816.3 823 828.5C914.3 840.7 1005.7 865.3 1097 861.8C1188.3 858.3 1279.7 826.7 1371.2 823.2C1462.7 819.7 1554.3 844.3 1645.8 845.8C1737.3 847.3 1828.7 825.7 1874.3 814.8L1920 804L1920 1081L1874.3 1081C1828.7 1081 1737.3 1081 1645.8 1081C1554.3 1081 1462.7 1081 1371.2 1081C1279.7 1081 1188.3 1081 1097 1081C1005.7 1081 914.3 1081 823 1081C731.7 1081 640.3 1081 548.8 1081C457.3 1081 365.7 1081 274.2 1081C182.7 1081 91.3 1081 45.7 1081L0 1081Z" fill="#984eaf"></path><path d="M0 960L45.7 945C91.3 930 182.7 900 274.2 892.8C365.7 885.7 457.3 901.3 548.8 904.3C640.3 907.3 731.7 897.7 823 894.7C914.3 891.7 1005.7 895.3 1097 896.8C1188.3 898.3 1279.7 897.7 1371.2 899C1462.7 900.3 1554.3 903.7 1645.8 899.7C1737.3 895.7 1828.7 884.3 1874.3 878.7L1920 873L1920 1081L1874.3 1081C1828.7 1081 1737.3 1081 1645.8 1081C1554.3 1081 1462.7 1081 1371.2 1081C1279.7 1081 1188.3 1081 1097 1081C1005.7 1081 914.3 1081 823 1081C731.7 1081 640.3 1081 548.8 1081C457.3 1081 365.7 1081 274.2 1081C182.7 1081 91.3 1081 45.7 1081L0 1081Z" fill="#84338b"></path><path d="M0 1007L45.7 1007C91.3 1007 182.7 1007 274.2 1001.3C365.7 995.7 457.3 984.3 548.8 987.2C640.3 990 731.7 1007 823 1015.3C914.3 1023.7 1005.7 1023.3 1097 1013C1188.3 1002.7 1279.7 982.3 1371.2 974.3C1462.7 966.3 1554.3 970.7 1645.8 981.5C1737.3 992.3 1828.7 1009.7 1874.3 1018.3L1920 1027L1920 1081L1874.3 1081C1828.7 1081 1737.3 1081 1645.8 1081C1554.3 1081 1462.7 1081 1371.2 1081C1279.7 1081 1188.3 1081 1097 1081C1005.7 1081 914.3 1081 823 1081C731.7 1081 640.3 1081 548.8 1081C457.3 1081 365.7 1081 274.2 1081C182.7 1081 91.3 1081 45.7 1081L0 1081Z" fill="#6e1569"></path></svg>